PathFileType	4	(X/Y/Z)	C:\Users\Basilio\Documents\Thesis Gigler\squatting_fais\c3dfiles\038\SJ_pre5\markers_experimental.trc
DataRate	CameraRate	NumFrames	NumMarkers	Units	OrigDataRate	OrigDataStartFrame	OrigNumFrames
200.000000	200.000000	4	61	mm	200.000000	0	1510
Frame#	Time	FHD			LBHD			RBHD			C7			T10			CLAV			LSHO			LUUPA			LMUPA			LDUPA			LLEP			LMEP			LRAD			LUL			LRFIN			RSHO			RUPA1			RMUPA			RDUPA			RLEP			RMEP			RRAD			RUL			RUFIN			LASI			RASI			USACR			LSACR			RSACR			LTHI1			LTHI2			LTHI3			LTHI4			LLFC			LMFC			LTIB1			LTIB2			LTIB3			LTIB4			LLMAL			LMMAL			LHEE			LMT1			LMT2			LMT5			RTHI			RTHI2			RTHI3			RTHI4			RLFC			RMFC			RTIB1			RTIB2			RTIB3			RTIB4			RLMAL			RMMAL			RHEE			RMT1			RMT2			RMT5			
		X1	Y1	Z1	X2	Y2	Z2	X3	Y3	Z3	X4	Y4	Z4	X5	Y5	Z5	X6	Y6	Z6	X7	Y7	Z7	X8	Y8	Z8	X9	Y9	Z9	X10	Y10	Z10	X11	Y11	Z11	X12	Y12	Z12	X13	Y13	Z13	X14	Y14	Z14	X15	Y15	Z15	X16	Y16	Z16	X17	Y17	Z17	X18	Y18	Z18	X19	Y19	Z19	X20	Y20	Z20	X21	Y21	Z21	X22	Y22	Z22	X23	Y23	Z23	X24	Y24	Z24	X25	Y25	Z25	X26	Y26	Z26	X27	Y27	Z27	X28	Y28	Z28	X29	Y29	Z29	X30	Y30	Z30	X31	Y31	Z31	X32	Y32	Z32	X33	Y33	Z33	X34	Y34	Z34	X35	Y35	Z35	X36	Y36	Z36	X37	Y37	Z37	X38	Y38	Z38	X39	Y39	Z39	X40	Y40	Z40	X41	Y41	Z41	X42	Y42	Z42	X43	Y43	Z43	X44	Y44	Z44	X45	Y45	Z45	X46	Y46	Z46	X47	Y47	Z47	X48	Y48	Z48	X49	Y49	Z49	X50	Y50	Z50	X51	Y51	Z51	X52	Y52	Z52	X53	Y53	Z53	X54	Y54	Z54	X55	Y55	Z55	X56	Y56	Z56	X57	Y57	Z57	X58	Y58	Z58	X59	Y59	Z59	X60	Y60	Z60	X61	Y61	Z61	

1	0	-90.89954376220705	1618.511108398438	-867.5457763671877	-244.4830627441407	1673.54638671875	-931.4409179687502	-247.7481689453126	1659.455932617188	-786.0523071289065	-393.8484802246095	1531.687377929688	-867.1303710937502	-458.9817199707032	1244.761352539063	-876.690612792969	-267.2676086425782	1462.51904296875	-873.9578857421877	-316.5382995605469	1523.80810546875	-1036.605590820313	-376.2515869140626	1361.888549804688	-1211.789184570313	-335.6790771484376	1332.572265625	-1202.260986328125	-364.7816772460938	1302.136108398438	-1246.258544921875	-353.1916198730469	1240.4833984375	-1263.909423828125	-429.3335876464845	1215.944946289063	-1241.033081054688	-335.3915405273438	1021.972473144531	-1069.815307617188	-289.8782653808594	988.336608886719	-1118.381591796875	-316.5979614257813	981.2629394531252	-1012.6787109375	-310.3267517089844	1498.068725585938	-708.6706542968751	-345.5613708496094	1355.938720703125	-540.4281616210939	-327.9931945800782	1311.077026367188	-550.0197753906251	-353.5102539062501	1301.47705078125	-497.373504638672	-356.3625793457032	1229.256958007813	-469.967742919922	-439.821990966797	1219.875244140625	-478.0558471679689	-375.5143737792969	1021.187927246094	-648.9599609375001	-329.9626770019532	982.486022949219	-606.4714355468751	-338.1758117675782	987.4237060546877	-706.2405395507814	-322.4655456542969	1028.144165039063	-988.6933593750002	-335.4898071289063	1038.874267578125	-740.4367065429689	-490.4005126953126	1103.010131835938	-876.0283813476565	-506.3041381835939	1073.785766601563	-904.1248779296877	-510.353729248047	1074.94677734375	-848.0310668945315	-371.3967590332032	725.9814453125001	-1085.305053710938	-337.0762329101563	647.8496093750001	-1088.23388671875	-290.9496154785157	653.7129516601564	-1067.803588867188	-362.3820190429688	595.7932128906251	-1073.750122070313	-355.8550415039063	537.5270996093751	-1073.048583984375	-327.8057556152344	512.0811767578126	-959.7461547851565	-317.9441528320313	341.6943664550782	-1036.668579101563	-374.4510192871094	311.1186218261719	-1098.641479492188	-336.2732849121094	301.7792053222657	-1076.421508789063	-346.2925415039063	218.5751647949219	-1058.257568359375	-437.7482910156251	87.25604248046876	-1080.580078125	-383.1431884765626	95.58595275878908	-1019.671081542969	-470.7544555664064	43.4645118713379	-1023.190979003906	-267.5398864746094	46.62902450561524	-1082.120971679688	-277.8168029785157	51.79578018188478	-1131.637329101563	-329.7638549804688	32.18776321411134	-1165.324340820313	-409.6141357421876	781.0487060546877	-673.3966064453126	-373.3394165039063	725.8261108398439	-660.7613525390626	-339.9459838867188	727.9541625976564	-659.7968750000001	-398.3123474121095	645.1536865234376	-680.9464721679689	-377.2039489746094	511.2991333007814	-681.8365478515626	-355.3119201660157	506.3427124023439	-798.3127441406252	-333.7088623046876	332.6821899414063	-691.8183593750001	-418.9939575195314	256.5676574707032	-671.2058105468751	-371.5186462402344	257.7543640136719	-671.2072753906251	-355.8154296875001	206.6661071777344	-695.1968383789064	-430.9531250000001	89.86345672607423	-679.0057983398439	-381.6205749511719	92.09443664550783	-747.5975952148439	-469.1808166503907	39.66408157348634	-755.1221313476564	-265.7657775878907	49.63342285156251	-674.2785034179689	-282.8292541503907	54.39531707763673	-630.6845703125001	-337.8392028808594	34.17306518554688	-600.8068847656251	
2	0.005	-91.14900207519533	1618.616333007813	-867.621276855469	-244.8460845947266	1673.490356445313	-931.4589843750002	-248.1333770751954	1659.307495117188	-786.065124511719	-394.1554565429689	1531.471923828125	-867.3184814453127	-459.0034790039064	1244.423950195313	-876.905944824219	-267.3777465820313	1462.431884765625	-874.1075439453127	-316.8515319824219	1523.498291015625	-1036.8251953125	-376.4339599609376	1361.331787109375	-1211.845336914063	-335.6690979003907	1332.126831054688	-1202.409057617188	-364.6328430175782	1301.435913085938	-1246.292724609375	-352.8798828125001	1239.916870117188	-1263.9130859375	-428.9146728515626	1215.202026367188	-1241.057373046875	-334.8969421386719	1021.455017089844	-1069.801391601563	-289.1353759765626	987.7998657226565	-1118.316650390625	-315.8572387695313	980.777770996094	-1012.65966796875	-310.9397888183594	1497.858642578125	-708.5998535156251	-345.9342346191407	1355.537109375	-540.4627075195314	-328.3367919921876	1310.80322265625	-550.1429443359376	-353.8653869628907	1301.038818359375	-497.4561767578126	-356.6066284179688	1228.834838867188	-470.0978088378907	-439.9302673339845	1219.40283203125	-478.2573547363282	-375.4170532226563	1020.682312011719	-649.0126953125001	-329.8019104003907	982.0335693359377	-606.5280761718751	-338.0516967773438	986.9741821289065	-706.1631469726564	-322.1477966308594	1027.996459960938	-988.7219238281252	-335.3856506347657	1038.658447265625	-740.4931640625001	-490.2770385742189	1102.540283203125	-876.1870727539065	-506.1411132812501	1073.346801757813	-904.259216308594	-510.2132568359376	1074.487670898438	-848.1546020507815	-370.2271118164063	725.9598388671876	-1085.463256835938	-335.7521362304688	647.8533325195314	-1088.439086914063	-289.8810424804688	653.7245483398439	-1067.81640625	-360.9943542480469	595.7459106445314	-1074.18017578125	-354.8371582031251	537.3720703125001	-1073.391357421875	-326.4567871093751	511.9229125976564	-960.1453247070315	-317.4670410156251	341.5675964355469	-1036.849975585938	-373.5903320312501	311.1364135742188	-1099.02392578125	-335.5421752929688	301.6170349121094	-1076.586181640625	-345.4055786132813	219.3816375732422	-1057.937255859375	-437.9371643066407	86.99135589599611	-1080.737426757813	-383.0736083984376	95.59201812744142	-1019.8271484375	-470.7229614257814	43.52825164794923	-1023.190002441406	-267.5306701660157	46.5811882019043	-1082.158569335938	-277.8833312988282	51.64751434326173	-1131.755615234375	-329.7263793945313	32.11552810668946	-1165.398803710938	-409.2857055664064	780.8328247070315	-673.5177001953126	-372.9423828125001	725.6713867187501	-660.8306274414064	-339.4392700195313	727.8913574218751	-659.7655639648439	-397.742645263672	645.0812988281251	-680.9600219726564	-376.4568176269532	511.131072998047	-681.8361206054689	-353.7825317382813	506.4379882812501	-798.2693481445315	-333.0133056640626	332.5949401855469	-691.9627075195314	-418.5574035644532	256.5494689941407	-671.3580322265626	-370.8789367675782	257.6707153320313	-671.2832031250001	-355.3121032714844	206.1793975830079	-695.4058837890626	-430.7568359375001	89.96047210693361	-679.2129516601564	-382.2023620605469	91.42561340332033	-748.1190185546876	-469.0040588378907	39.68283081054688	-755.2210083007814	-265.5412597656251	49.65766906738283	-674.1199340820314	-282.6669616699219	54.28754043579103	-630.6434936523439	-337.7465209960938	34.17111587524415	-600.7672729492189	
3	0.01	-91.50391387939455	1618.670654296875	-867.5914306640627	-245.2862854003907	1673.435791015625	-931.4765625000002	-248.6672363281251	1659.1640625	-786.1345825195315	-394.4839172363282	1531.267456054688	-867.5203247070315	-459.0155334472657	1244.182739257813	-877.0255126953127	-267.5601501464844	1462.358642578125	-874.2449951171877	-317.6218872070313	1523.591430664063	-1037.150390625	-376.4429626464844	1360.77099609375	-1211.886352539063	-335.6069030761719	1331.681640625	-1202.508178710938	-364.3697204589844	1300.8857421875	-1246.403198242188	-352.4833679199219	1239.403564453125	-1263.881469726563	-428.5232849121095	1214.484741210938	-1241.047607421875	-334.3012084960938	1020.879516601563	-1069.757690429688	-288.5951232910157	987.275085449219	-1118.168334960938	-315.8813476562501	979.756774902344	-1012.282531738281	-311.4947814941407	1497.67919921875	-708.5592041015626	-346.4382934570313	1355.170654296875	-540.5381469726564	-328.5346374511719	1310.604858398438	-550.2452392578126	-354.1975097656251	1300.687255859375	-497.6152648925782	-356.8518371582032	1228.431396484375	-470.2890014648439	-440.1248474121095	1218.866088867188	-478.4846801757814	-375.3181457519532	1020.145568847656	-649.0643920898439	-329.6493835449219	981.6457519531252	-606.5656127929689	-337.8576049804688	986.5232543945315	-706.1121215820314	-321.7885437011719	1027.832641601563	-988.8110961914065	-335.2203063964844	1038.493408203125	-740.5522460937501	-490.091278076172	1102.091796875	-876.3586425781252	-505.9767456054689	1072.892700195313	-904.3499145507815	-509.9967041015626	1074.138793945313	-848.234069824219	-369.0321655273438	725.9277954101564	-1085.637939453125	-334.5869750976563	647.8167724609376	-1088.597412109375	-288.4120788574219	653.2822875976564	-1067.933959960938	-359.7823181152344	595.7419433593751	-1074.554931640625	-354.0914611816407	537.3187255859376	-1073.636596679688	-325.0497436523438	511.9234313964845	-960.4868774414065	-316.8428039550782	341.4362182617188	-1037.086303710938	-373.1518859863282	310.9075317382813	-1099.27734375	-335.2783813476563	300.6984252929688	-1077.0869140625	-344.9420166015626	219.2723083496094	-1058.0126953125	-437.8325195312501	86.97840881347658	-1080.80615234375	-383.0030212402344	95.61263275146486	-1019.893676757813	-470.6306457519532	43.71468353271485	-1023.057800292969	-267.5517578125001	46.55139923095704	-1082.182495117188	-277.5834045410157	51.98453521728517	-1131.688232421875	-329.7475585937501	32.03946685791016	-1165.4501953125	-408.966766357422	780.592224121094	-673.6064453125001	-372.5029907226563	725.5738525390626	-660.8845825195314	-338.9629516601563	727.8192749023439	-659.6630249023439	-396.8753356933595	644.9154663085939	-680.9988403320314	-375.6297607421876	511.5681457519532	-681.9923095703126	-352.3095092773438	506.4624633789064	-798.2434082031252	-332.3193054199219	332.4863281250001	-692.0475463867189	-418.0872497558595	256.5307006835938	-671.5091552734376	-370.3493957519532	257.5614013671876	-671.4161376953126	-355.1397705078126	206.3559112548829	-695.2545166015626	-430.5285034179689	90.00551605224611	-679.3434448242189	-382.0925598144532	91.3505096435547	-748.3106079101564	-468.9390869140626	39.75946807861329	-755.2777099609376	-265.4048767089844	49.51396942138673	-674.0339965820314	-282.5990600585938	54.16363525390626	-630.6912841796876	-337.8525085449219	34.23182678222657	-600.8297729492189	
4	0.015	-91.91385650634767	1618.801879882813	-867.619567871094	-245.7357940673829	1673.38427734375	-931.4660644531252	-249.287582397461	1659.064697265625	-786.1596679687502	-394.7459411621095	1531.068359375	-867.678161621094	-459.0192260742189	1243.959228515625	-877.211364746094	-267.8072509765626	1462.317993164063	-874.3140869140627	-317.9119567871094	1523.368896484375	-1037.38232421875	-376.5347595214844	1360.1923828125	-1211.980102539063	-335.5498962402344	1331.281982421875	-1202.587890625	-364.2112426757813	1300.385864257813	-1246.430786132813	-352.1281738281251	1238.834350585938	-1263.727294921875	-427.7069396972657	1213.095458984375	-1241.089965820313	-333.8104553222657	1020.410522460938	-1069.755615234375	-287.8947753906251	986.745788574219	-1117.972534179688	-315.3186950683594	979.3889770507815	-1012.172058105469	-312.0727539062501	1497.598266601563	-708.5759887695314	-347.0168762207032	1354.87744140625	-540.6589355468751	-329.0731201171876	1310.363159179688	-550.5418090820314	-354.5674743652344	1300.43896484375	-497.7856445312501	-357.0407714843751	1228.111083984375	-470.4812927246095	-440.3313598632814	1218.385131835938	-478.6861877441407	-375.1903686523438	1019.607116699219	-649.0994873046876	-329.5507202148438	981.1621704101565	-606.5913085937501	-337.7136535644532	986.0730590820315	-706.0605468750001	-321.3884582519532	1027.740356445313	-988.871765136719	-335.0679626464844	1038.324829101563	-740.6207885742189	-489.9925537109376	1101.7177734375	-876.4959106445315	-505.6751403808595	1072.46728515625	-904.4709472656252	-509.8105773925782	1073.7158203125	-848.3519287109377	-367.9721069335938	725.9382934570314	-1085.757690429688	-333.4334411621094	647.8309936523439	-1088.848388671875	-287.3568115234376	653.2845458984376	-1068.03369140625	-358.7346496582032	595.7401123046876	-1074.896484375	-353.2361145019532	537.2714843750001	-1073.87109375	-324.0577697753907	511.6993713378907	-960.8206787109377	-316.1389465332032	341.3471679687501	-1037.272216796875	-372.5866394042969	310.8130187988282	-1099.607666015625	-334.5379943847657	301.3697509765626	-1076.81591796875	-344.6566772460938	219.1605682373047	-1058.159057617188	-437.7525634765626	86.95767211914064	-1080.896728515625	-382.9364929199219	95.6099319458008	-1020.040771484375	-470.6018676757814	43.5456657409668	-1023.167297363281	-267.4081420898438	46.55510330200196	-1082.243774414063	-277.5479125976563	51.90909576416017	-1131.806396484375	-329.7097167968751	31.98909187316895	-1165.477783203125	-408.6636962890626	780.438171386719	-673.7137451171876	-371.7502441406251	725.8908081054689	-660.6639404296876	-338.5702209472657	727.8246459960939	-659.6132202148439	-396.1954345703126	644.7305908203126	-681.1373901367189	-374.7471923828126	511.2448730468751	-682.0340576171876	-351.0357971191407	506.3496093750001	-798.2519531250002	-331.7398681640626	332.3359985351563	-692.1448364257814	-417.6232299804689	256.4856567382813	-671.5903320312501	-369.8655395507813	257.4073181152344	-671.5861206054689	-354.5281982421876	205.8728332519532	-695.6006469726564	-430.3865661621095	90.08673095703126	-679.5781860351564	-381.9872436523438	91.30474090576173	-748.4194335937501	-468.8958435058595	39.80171585083009	-755.3408203125001	-265.2703857421876	49.49273681640626	-674.0039062500001	-282.4933166503907	54.04921340942384	-630.7131958007814	-337.7864379882813	34.24629211425782	-600.8148193359376	
